<svg data-v-fcf79d06="" width="12" height="15" viewBox="0 0 12 15" fill="none" xmlns="http://www.w3.org/2000/svg" class="" data-label="svg"><path data-v-fcf79d06="" d="M6.55957 0C7.30429 5.00926e-05 7.9677 0.263652 8.44531 0.741211C8.92269 1.2187 9.18634 1.88153 9.18652 2.62598V4.09668C10.257 4.43482 10.4167 5.27098 10.5371 6.24414L10.9824 9.9668C11.002 10.163 10.8514 10.3338 10.6553 10.334H2.96094C2.6927 10.334 2.46974 10.5494 2.46973 10.8242C2.46973 11.0925 2.69269 11.3145 2.96094 11.3145H10.832C11.0084 11.3147 11.1525 11.4457 11.1592 11.6221C11.1919 13.0091 10.583 14.0761 8.51562 14.0762H2.64062C0.344208 14.0762 -0.153592 12.7608 0.0361328 11.1514L0.625 6.24414C0.740442 5.27052 0.899149 4.43354 1.9707 4.0957V2.62598C1.97088 1.88142 2.23441 1.21872 2.71191 0.741211C3.18948 0.263815 3.85212 8.16698e-05 4.59668 0H6.55957ZM4.59668 1.98145C4.34839 1.98151 4.19927 2.05677 4.11328 2.14258C4.02739 2.22847 3.9523 2.37764 3.95215 2.62598V3.93457H7.20508V2.62598C7.20493 2.37784 7.12975 2.2285 7.04395 2.14258C6.95797 2.05666 6.80814 1.98149 6.55957 1.98145H4.59668Z" fill="#F4823D" class=""/></svg>